<?xml version="1.0" encoding="UTF-8" standalone="no"?>
<svg
   xmlns:dc="http://purl.org/dc/elements/1.1/"
   xmlns:cc="http://creativecommons.org/ns#"
   xmlns:rdf="http://www.w3.org/1999/02/22-rdf-syntax-ns#"
   xmlns:svg="http://www.w3.org/2000/svg"
   xmlns="http://www.w3.org/2000/svg"
   xmlns:sodipodi="http://sodipodi.sourceforge.net/DTD/sodipodi-0.dtd"
   xmlns:inkscape="http://www.inkscape.org/namespaces/inkscape"
   version="1.1"
   id="Layer_1"
   x="0px"
   y="0px"
   viewBox="0 0 1351.3039 330"
   xml:space="preserve"
   sodipodi:docname="kiwi.svg"
   inkscape:version="1.0.2 (e86c870879, 2021-01-15, custom)"
   width="1351.304"
   height="330"><metadata
   id="metadata47"><rdf:RDF><cc:Work
       rdf:about=""><dc:format>image/svg+xml</dc:format><dc:type
         rdf:resource="http://purl.org/dc/dcmitype/StillImage" /><dc:title></dc:title></cc:Work></rdf:RDF></metadata><defs
   id="defs45" /><sodipodi:namedview
   pagecolor="#ffffff"
   bordercolor="#666666"
   borderopacity="1"
   objecttolerance="10"
   gridtolerance="10"
   guidetolerance="10"
   inkscape:pageopacity="0"
   inkscape:pageshadow="2"
   inkscape:window-width="1851"
   inkscape:window-height="1011"
   id="namedview43"
   showgrid="false"
   inkscape:zoom="0.39372991"
   inkscape:cx="241.82676"
   inkscape:cy="316.69304"
   inkscape:window-x="69"
   inkscape:window-y="32"
   inkscape:window-maximized="1"
   inkscape:current-layer="Layer_1"
   inkscape:document-rotation="0"
   fit-margin-top="0"
   fit-margin-left="0"
   fit-margin-right="0"
   fit-margin-bottom="0" />
<g
   id="XMLID_20_"
   transform="translate(512.06589)"
   style="fill:#4f9f8a;fill-opacity:1">
	<path
   id="XMLID_21_"
   d="M 165,0 C 74.019,0 0,74.019 0,165 0,255.981 74.019,330 165,330 255.981,330 330,255.981 330,165 330,74.019 255.981,0 165,0 Z m 0,300 C 90.561,300 30,239.439 30,165 30,90.561 90.561,30 165,30 c 74.439,0 135,60.561 135,135 0,74.439 -60.561,135 -135,135 z"
   style="fill:#4f9f8a;fill-opacity:1" />
	<path
   id="XMLID_24_"
   d="m 165,75 c -8.284,0 -15,6.716 -15,15 v 8.334 c 0,8.284 6.716,15 15,15 8.284,0 15,-6.716 15,-15 V 90 c 0,-8.284 -6.716,-15 -15,-15 z"
   style="fill:#4f9f8a;fill-opacity:1" />
	<path
   id="XMLID_25_"
   d="m 165,216.667 c -8.284,0 -15,6.716 -15,15 V 240 c 0,8.284 6.716,15 15,15 8.284,0 15,-6.716 15,-15 v -8.333 c 0,-8.285 -6.716,-15 -15,-15 z"
   style="fill:#4f9f8a;fill-opacity:1" />
	<path
   id="XMLID_26_"
   d="m 240,150 h -8.333 c -8.284,0 -15,6.716 -15,15 0,8.284 6.716,15 15,15 H 240 c 8.284,0 15,-6.716 15,-15 0,-8.284 -6.716,-15 -15,-15 z"
   style="fill:#4f9f8a;fill-opacity:1" />
	<path
   id="XMLID_27_"
   d="m 113.333,165 c 0,-8.284 -6.716,-15 -15,-15 H 90 c -8.284,0 -15,6.716 -15,15 0,8.284 6.716,15 15,15 h 8.333 c 8.284,0 15,-6.716 15,-15 z"
   style="fill:#4f9f8a;fill-opacity:1" />
	<path
   id="XMLID_28_"
   d="m 212.141,132.86 c 3.839,0 7.679,-1.465 10.607,-4.394 l 5.893,-5.893 c 5.857,-5.858 5.857,-15.355 -0.001,-21.213 -5.859,-5.857 -15.356,-5.857 -21.214,0.001 l -5.893,5.893 c -5.857,5.858 -5.856,15.355 0.001,21.213 2.93,2.928 6.768,4.393 10.607,4.393 z"
   style="fill:#4f9f8a;fill-opacity:1" />
	<path
   id="XMLID_29_"
   d="m 107.252,201.534 -5.893,5.893 c -5.857,5.858 -5.856,15.355 0.001,21.213 2.93,2.929 6.768,4.393 10.606,4.393 3.839,0 7.679,-1.465 10.607,-4.394 l 5.893,-5.893 c 5.857,-5.858 5.856,-15.355 -0.001,-21.213 -5.859,-5.857 -15.356,-5.857 -21.213,0.001 z"
   style="fill:#4f9f8a;fill-opacity:1" />
	<path
   id="XMLID_30_"
   d="m 222.748,201.534 c -5.859,-5.858 -15.356,-5.859 -21.214,-0.001 -5.857,5.857 -5.858,15.355 -0.001,21.213 l 5.893,5.893 c 2.93,2.93 6.769,4.394 10.607,4.394 3.838,0 7.678,-1.464 10.606,-4.393 5.857,-5.857 5.858,-15.355 10e-4,-21.213 z"
   style="fill:#4f9f8a;fill-opacity:1" />
	<path
   id="XMLID_31_"
   d="m 122.574,101.361 c -5.859,-5.858 -15.356,-5.859 -21.214,-0.001 -5.857,5.857 -5.858,15.355 -0.001,21.213 l 5.893,5.893 c 2.93,2.93 6.769,4.394 10.607,4.394 3.838,0 7.678,-1.464 10.606,-4.393 5.857,-5.857 5.858,-15.355 0.001,-21.213 z"
   style="fill:#4f9f8a;fill-opacity:1" />
</g>
<g
   id="g12"
   transform="translate(512.06589)">
</g>
<g
   id="g14"
   transform="translate(512.06589)">
</g>
<g
   id="g16"
   transform="translate(512.06589)">
</g>
<g
   id="g18"
   transform="translate(512.06589)">
</g>
<g
   id="g20"
   transform="translate(512.06589)">
</g>
<g
   id="g22"
   transform="translate(512.06589)">
</g>
<g
   id="g24"
   transform="translate(512.06589)">
</g>
<g
   id="g26"
   transform="translate(512.06589)">
</g>
<g
   id="g28"
   transform="translate(512.06589)">
</g>
<g
   id="g30"
   transform="translate(512.06589)">
</g>
<g
   id="g32"
   transform="translate(512.06589)">
</g>
<g
   id="g34"
   transform="translate(512.06589)">
</g>
<g
   id="g36"
   transform="translate(512.06589)">
</g>
<g
   id="g38"
   transform="translate(512.06589)">
</g>
<g
   id="g40"
   transform="translate(512.06589)">
</g>
<text
   xml:space="preserve"
   style="font-style:normal;font-variant:normal;font-weight:normal;font-stretch:normal;font-size:263.212px;line-height:1.25;font-family:CoreGungseoW01-Regular;-inkscape-font-specification:'CoreGungseoW01-Regular, Normal';font-variant-ligatures:normal;font-variant-caps:normal;font-variant-numeric:normal;font-variant-east-asian:normal;letter-spacing:0px;word-spacing:0px;fill:#4ca18f;fill-opacity:1;stroke:none;stroke-width:6.58033"
   x="-12.081019"
   y="242.81564"
   id="text874"><tspan
     sodipodi:role="line"
     id="tspan872"
     x="-12.081019"
     y="242.81564"
     style="font-style:normal;font-variant:normal;font-weight:normal;font-stretch:normal;font-size:263.212px;font-family:CoreGungseoW01-Regular;-inkscape-font-specification:'CoreGungseoW01-Regular, Normal';font-variant-ligatures:normal;font-variant-caps:normal;font-variant-numeric:normal;font-variant-east-asian:normal;fill:#4ca18f;fill-opacity:1;stroke-width:6.58033">Kiwi</tspan></text><text
   xml:space="preserve"
   style="font-style:normal;font-variant:normal;font-weight:normal;font-stretch:normal;font-size:240.334px;line-height:1.25;font-family:Carbonium-Bold;-inkscape-font-specification:'Carbonium-Bold, Normal';font-variant-ligatures:normal;font-variant-caps:normal;font-variant-numeric:normal;font-variant-east-asian:normal;letter-spacing:0px;word-spacing:0px;fill:#4ca18f;fill-opacity:1;stroke:none;stroke-width:6.00833"
   x="881.21155"
   y="232.36951"
   id="text878"><tspan
     sodipodi:role="line"
     id="tspan876"
     x="881.21155"
     y="232.36951"
     style="font-style:normal;font-variant:normal;font-weight:normal;font-stretch:normal;font-size:240.334px;font-family:Carbonium-Bold;-inkscape-font-specification:'Carbonium-Bold, Normal';font-variant-ligatures:normal;font-variant-caps:normal;font-variant-numeric:normal;font-variant-east-asian:normal;fill:#4ca18f;fill-opacity:1;stroke-width:6.00833">Pyme</tspan></text></svg>
