<?xml version="1.0" encoding="UTF-8" standalone="no"?>
<svg
   height="512pt"
   viewBox="0 -32 512.00011 512"
   width="512pt"
   version="1.1"
   id="svg12"
   sodipodi:docname="huella_shop.svg"
   inkscape:version="1.1 (c4e8f9ed74, 2021-05-24)"
   xmlns:inkscape="http://www.inkscape.org/namespaces/inkscape"
   xmlns:sodipodi="http://sodipodi.sourceforge.net/DTD/sodipodi-0.dtd"
   xmlns:xlink="http://www.w3.org/1999/xlink"
   xmlns="http://www.w3.org/2000/svg"
   xmlns:svg="http://www.w3.org/2000/svg">
  <defs
     id="defs16">
    <linearGradient
       inkscape:collect="always"
       id="linearGradient938">
      <stop
         style="stop-color:#800080;stop-opacity:1;"
         offset="0"
         id="stop934" />
      <stop
         style="stop-color:#800080;stop-opacity:0;"
         offset="1"
         id="stop936" />
    </linearGradient>
    <linearGradient
       inkscape:collect="always"
       xlink:href="#linearGradient938"
       id="linearGradient940"
       x1="183.93076"
       y1="-101.61199"
       x2="239.14049"
       y2="724.21985"
       gradientUnits="userSpaceOnUse" />
  </defs>
  <sodipodi:namedview
     id="namedview14"
     pagecolor="#ffffff"
     bordercolor="#666666"
     borderopacity="1.0"
     inkscape:pageshadow="2"
     inkscape:pageopacity="0.0"
     inkscape:pagecheckerboard="0"
     inkscape:document-units="pt"
     showgrid="false"
     inkscape:zoom="0.77995811"
     inkscape:cx="313.47837"
     inkscape:cy="517.97654"
     inkscape:window-width="1920"
     inkscape:window-height="995"
     inkscape:window-x="0"
     inkscape:window-y="0"
     inkscape:window-maximized="1"
     inkscape:current-layer="svg12" />
  <g
     id="g880"
     style="fill-opacity:1;fill:url(#linearGradient940)">
    <path
       d="m342.382812 239.351562c-23.039062-35.941406-62.277343-57.402343-104.964843-57.402343s-81.925781 21.460937-104.960938 57.402343l-55.515625 86.605469c-9.210937 14.367188-13.460937 30.96875-12.292968 47.996094 1.167968 17.03125 7.648437 32.890625 18.738281 45.875 11.097656 12.972656 25.761719 21.839844 42.40625 25.644531 16.644531 3.804688 33.707031 2.179688 49.339843-4.691406l1.046876-.464844c39.335937-16.945312 84.285156-16.789062 123.519531.464844 10.121093 4.449219 20.84375 6.699219 31.664062 6.699219 5.882813 0 11.800781-.667969 17.664063-2.003907 16.644531-3.800781 31.308594-12.667968 42.410156-25.644531 11.09375-12.972656 17.578125-28.835937 18.75-45.871093 1.171875-17.035157-3.078125-33.632813-12.289062-48.007813zm0 0"
       id="path2"
       style="stroke:none;stroke-opacity:1;fill:url(#linearGradient940);fill-opacity:1.0" />
    <path
       d="m91.894531 239.238281c16.515625-6.34375 29.0625-19.652343 35.328125-37.476562 5.964844-16.960938 5.476563-36.109375-1.378906-53.921875-6.859375-17.800782-19.335938-32.332032-35.132812-40.921875-16.59375-9.019531-34.824219-10.488281-51.3125-4.132813-33.171876 12.753906-48.394532 53.746094-33.929688 91.398438 11.554688 29.96875 38.503906 48.886718 65.75 48.886718 6.957031 0 13.933594-1.234374 20.675781-3.832031zm0 0"
       id="path4"
       style="stroke:none;stroke-opacity:1;fill:url(#linearGradient940);fill-opacity:1.0" />
    <path
       d="m199.613281 171.386719c41.46875 0 75.207031-38.4375 75.207031-85.683594 0-47.257813-33.738281-85.703125-75.207031-85.703125-41.464843 0-75.199219 38.445312-75.199219 85.703125 0 47.246094 33.734376 85.683594 75.199219 85.683594zm0 0"
       id="path6"
       style="stroke:none;stroke-opacity:1;fill:url(#linearGradient940);fill-opacity:1.0" />
    <path
       d="m329.496094 192.4375h.003906c6.378906 2.117188 12.886719 3.128906 19.367188 3.128906 30.242187 0 59.714843-22.011718 70.960937-55.839844 6.476563-19.472656 6.050781-40.0625-1.199219-57.972656-7.585937-18.75-21.644531-32.359375-39.589844-38.324218-17.949218-5.964844-37.359374-3.476563-54.660156 7-16.527344 10.007812-29.191406 26.246093-35.660156 45.71875-13.652344 41.078124 4.640625 84.273437 40.777344 96.289062zm0 0"
       id="path8"
       style="stroke:none;stroke-opacity:1;fill:url(#linearGradient940);fill-opacity:1.0" />
    <path
       d="m487.875 182.4375-.011719-.011719c-28.597656-21.125-71.367187-11.96875-95.347656 20.421875-23.957031 32.40625-20.210937 75.972656 8.34375 97.113282 10.414063 7.714843 22.71875 11.402343 35.3125 11.402343 21.949219 0 44.785156-11.203125 60.050781-31.804687 23.953125-32.40625 20.210938-75.972656-8.347656-97.121094zm0 0"
       id="path10"
       style="stroke:none;stroke-opacity:1;fill:url(#linearGradient940);fill-opacity:1.0" />
  </g>
  <g
     id="g989"
     transform="matrix(0.32498957,0,0,0.32498957,156.99568,243.74508)"
     style="fill:#ffffff">
    <path
       d="M 472,0 H 8 C 3.582031,0 0,3.582031 0,8 v 32 c 0,4.417969 3.582031,8 8,8 h 8 V 336 H 8 c -4.417969,0 -8,3.58203 -8,8 v 128 c 0,4.41797 3.582031,8 8,8 h 464 c 4.41797,0 8,-3.58203 8,-8 V 344 c 0,-4.41797 -3.58203,-8 -8,-8 h -8 V 48 h 8 c 4.41797,0 8,-3.582031 8,-8 V 8 c 0,-4.417969 -3.58203,-8 -8,-8 z M 112,464 H 16 v -80 h 96 z m 0,-96 H 16 v -16 h 96 z m 0,-32 H 32 V 171.55078 c 13.15625,7.87109 30.074219,5.07813 40,-6.60547 9.925781,11.6836 26.84375,14.47656 40,6.60547 z M 64,144 c 0,8.83594 -7.164062,16 -16,16 -8.835938,0 -16,-7.16406 -16,-16 z M 32,128 V 48 h 32 v 80 z m 64,32 c -8.835938,0 -16,-7.16406 -16,-16 h 32 c 0,8.83594 -7.16406,16 -16,16 z m 16,-32 H 80 V 48 h 32 z M 352,464 H 128 v -16 h 224 z m 0,-32 H 128 V 171.55078 c 13.15625,7.87109 30.07422,5.07813 40,-6.60547 6,7.01563 14.76953,11.05469 24,11.05469 9.23047,0 18,-4.03906 24,-11.05469 6,7.01563 14.76953,11.05469 24,11.05469 9.23047,0 18,-4.03906 24,-11.05469 6,7.01563 14.76953,11.05469 24,11.05469 9.23047,0 18,-4.03906 24,-11.05469 9.92578,11.6836 26.84375,14.47656 40,6.60547 z M 160,144 c 0,8.83594 -7.16406,16 -16,16 -8.83594,0 -16,-7.16406 -16,-16 z M 128,128 V 48 h 32 v 80 z m 80,16 c 0,8.83594 -7.16406,16 -16,16 -8.83594,0 -16,-7.16406 -16,-16 z M 176,128 V 48 h 32 v 80 z m 80,16 c 0,8.83594 -7.16406,16 -16,16 -8.83594,0 -16,-7.16406 -16,-16 z M 224,128 V 48 h 32 v 80 z m 80,16 c 0,8.83594 -7.16406,16 -16,16 -8.83594,0 -16,-7.16406 -16,-16 z M 272,128 V 48 h 32 v 80 z m 64,32 c -8.83594,0 -16,-7.16406 -16,-16 h 32 c 0,8.83594 -7.16406,16 -16,16 z m 16,-32 H 320 V 48 h 32 z m 112,336 h -96 v -80 h 96 z m 0,-96 h -96 v -16 h 96 z M 400,144 c 0,8.83594 -7.16406,16 -16,16 -8.83594,0 -16,-7.16406 -16,-16 z M 368,128 V 48 h 32 v 80 z m 16,48 c 9.22656,-0.0312 17.98047,-4.0625 24,-11.05469 9.92578,11.6836 26.84375,14.47656 40,6.60547 V 336 H 368 V 171.55078 c 4.84375,2.87891 10.36719,4.41797 16,4.44922 z m 64,-32 c 0,8.83594 -7.16406,16 -16,16 -8.83594,0 -16,-7.16406 -16,-16 z M 416,128 V 48 h 32 v 80 z M 464,32 H 16 V 16 h 448 z m 0,0"
       id="path953"
       style="fill:#ffffff" />
    <path
       d="m 240,278.85547 c -36,0 -64,38.08984 -64,70.85547 C 176,392 222.49609,392 240,392 c 17.50391,0 64,0 64,-42.28906 0,-32.76563 -27.96094,-70.85547 -64,-70.85547 z M 240,376 c -39.83203,0 -48,-10.50391 -48,-26.28906 0,-24.69532 22.15234,-54.85547 48,-54.85547 25.84766,0 48,30.16015 48,54.85547 C 288,365.49609 279.83203,376 240,376 Z m 0,0"
       id="path955"
       style="fill:#ffffff" />
    <path
       d="m 208,264 c 0,-13.25391 -10.74609,-24 -24,-24 -13.25391,0 -24,10.74609 -24,24 0,13.25391 10.74609,24 24,24 13.25391,0 24,-10.74609 24,-24 z m -32,0 c 0,-4.41797 3.58203,-8 8,-8 4.41797,0 8,3.58203 8,8 0,4.41797 -3.58203,8 -8,8 -4.41797,0 -8,-3.58203 -8,-8 z m 0,0"
       id="path957"
       style="fill:#ffffff" />
    <path
       d="m 296,240 c -13.25391,0 -24,10.74609 -24,24 0,13.25391 10.74609,24 24,24 13.25391,0 24,-10.74609 24,-24 0,-13.25391 -10.74609,-24 -24,-24 z m 0,32 c -4.41797,0 -8,-3.58203 -8,-8 0,-4.41797 3.58203,-8 8,-8 4.41797,0 8,3.58203 8,8 0,4.41797 -3.58203,8 -8,8 z m 0,0"
       id="path959"
       style="fill:#ffffff" />
    <path
       d="m 240,264 c 13.25391,0 24,-10.74609 24,-24 0,-13.25391 -10.74609,-24 -24,-24 -13.25391,0 -24,10.74609 -24,24 0,13.25391 10.74609,24 24,24 z m 0,-32 c 4.41797,0 8,3.58203 8,8 0,4.41797 -3.58203,8 -8,8 -4.41797,0 -8,-3.58203 -8,-8 0,-4.41797 3.58203,-8 8,-8 z m 0,0"
       id="path961"
       style="fill:#ffffff" />
    <path
       d="m 328,304 c -4.41797,0 -8,3.58203 -8,8 v 16 c 0,4.41797 3.58203,8 8,8 4.41797,0 8,-3.58203 8,-8 v -16 c 0,-4.41797 -3.58203,-8 -8,-8 z m 0,0"
       id="path963"
       style="fill:#ffffff" />
    <path
       d="m 83.199219,209.60156 -32,24 c -3.535157,2.64844 -4.25,7.66406 -1.597657,11.19922 2.648438,3.53516 7.664063,4.25 11.199219,1.59766 l 32,-24 c 3.535157,-2.64844 4.25,-7.66407 1.597657,-11.19922 -2.648438,-3.53516 -7.664063,-4.25 -11.199219,-1.59766 z m 0,0"
       id="path965"
       style="fill:#ffffff" />
    <path
       d="m 83.199219,249.60156 -32,24 c -3.535157,2.64844 -4.25,7.66406 -1.597657,11.19922 2.648438,3.53516 7.664063,4.25 11.199219,1.59766 l 32,-24 c 3.535157,-2.64844 4.25,-7.66406 1.597657,-11.19922 -2.648438,-3.53516 -7.664063,-4.25 -11.199219,-1.59766 z m 0,0"
       id="path967"
       style="fill:#ffffff" />
    <path
       d="m 392,248 c 1.73047,0 3.41406,-0.5625 4.80078,-1.60156 l 32,-24 c 3.53516,-2.64844 4.25,-7.66407 1.59766,-11.19922 -2.64844,-3.53516 -7.66407,-4.25 -11.19922,-1.59766 l -32,24 c -2.75391,2.06641 -3.87891,5.66016 -2.78906,8.92969 C 385.5,245.79687 388.55469,248 392,248 Z m 0,0"
       id="path969"
       style="fill:#ffffff" />
    <path
       d="m 392,288 c 1.73047,0 3.41406,-0.5625 4.80078,-1.60156 l 32,-24 c 3.53516,-2.64844 4.25,-7.66407 1.59766,-11.19922 -2.64844,-3.53516 -7.66407,-4.25 -11.19922,-1.59766 l -32,24 c -2.75391,2.06641 -3.87891,5.66016 -2.78906,8.92969 C 385.5,285.79687 388.55469,288 392,288 Z m 0,0"
       id="path971"
       style="fill:#ffffff" />
  </g>
</svg>
