<svg xmlns="http://www.w3.org/2000/svg" xmlns:xlink="http://www.w3.org/1999/xlink" height="682.667" viewBox="0 -32 512 512" width="682.667" xmlns:v="https://vecta.io/nano"><defs><linearGradient id="A" x1="183.931" y1="-101.612" x2="239.14" y2="724.22" gradientUnits="userSpaceOnUse"><stop offset="0" stop-color="purple"/><stop offset="1" stop-color="purple" stop-opacity="0"/></linearGradient><path id="B" d="M184.035 311.863l-10.4 7.8a2.6 2.6 0 0 0 3.12 4.159l10.4-7.8a2.6 2.6 0 0 0-3.12-4.159zm0 0"/><path id="C" d="M284.392 324.343a2.6 2.6 0 0 0 1.56-.52l10.4-7.8a2.6 2.6 0 0 0-3.12-4.159l-10.4 7.8a2.6 2.6 0 0 0 1.56 4.679zm0 0"/></defs><g fill="url(#A)"><path d="M342.383 239.352c-23.039-35.941-62.277-57.402-104.965-57.402s-81.926 21.461-104.961 57.402l-55.516 86.605c-9.211 14.367-13.461 30.969-12.293 47.996s7.648 32.891 18.738 45.875c11.098 12.973 25.762 21.84 42.406 25.645s33.707 2.18 49.34-4.691l1.047-.465c39.336-16.945 84.285-16.789 123.52.465 10.121 4.449 20.844 6.699 31.664 6.699 5.883 0 11.801-.668 17.664-2.004 16.645-3.801 31.309-12.668 42.41-25.645 11.094-12.973 17.578-28.836 18.75-45.871a78.38 78.38 0 0 0-12.289-48.008zm0 0"/><path d="M91.895 239.238c16.516-6.344 29.063-19.652 35.328-37.477 5.965-16.961 5.477-36.109-1.379-53.922-6.859-17.801-19.336-32.332-35.133-40.922-16.594-9.02-34.824-10.488-51.312-4.133-33.172 12.754-48.395 53.746-33.93 91.398 11.555 29.969 38.504 48.887 65.75 48.887 6.957 0 13.934-1.234 20.676-3.832zm0 0"/><path d="M199.613 171.387c41.469 0 75.207-38.437 75.207-85.684C274.82 38.445 241.082 0 199.613 0s-75.199 38.445-75.199 85.703c0 47.246 33.734 85.684 75.199 85.684zm0 0"/><path d="M329.496 192.438h.004a61.3 61.3 0 0 0 19.367 3.129c30.242 0 59.715-22.012 70.961-55.84 6.477-19.473 6.051-40.062-1.199-57.973-7.586-18.75-21.645-32.359-39.59-38.324s-37.359-3.477-54.66 7c-16.527 10.008-29.191 26.246-35.66 45.719-13.652 41.078 4.641 84.273 40.777 96.289zm0 0"/><path d="M487.875 182.438l-.012-.012c-28.598-21.125-71.367-11.969-95.348 20.422-23.957 32.406-20.211 75.973 8.344 97.113 10.414 7.715 22.719 11.402 35.313 11.402 21.949 0 44.785-11.203 60.051-31.805 23.953-32.406 20.211-75.973-8.348-97.121zm0 0"/></g><g fill="#fff"><path d="M310.391 243.745H159.596a2.6 2.6 0 0 0-2.6 2.6v10.4a2.6 2.6 0 0 0 2.6 2.6h2.6v93.597h-2.6a2.6 2.6 0 0 0-2.6 2.6v41.599a2.6 2.6 0 0 0 2.6 2.6h150.795a2.6 2.6 0 0 0 2.6-2.6v-41.599a2.6 2.6 0 0 0-2.6-2.6h-2.6v-93.597h2.6a2.6 2.6 0 0 0 2.6-2.6v-10.4a2.6 2.6 0 0 0-2.6-2.6zM193.395 394.54h-31.199v-25.999h31.199zm0-31.199h-31.199v-5.2h31.199zm0-10.4h-25.999v-53.444c4.276 2.558 9.774 1.65 13-2.147 3.226 3.797 8.724 4.705 13 2.147zm-15.6-62.398a5.2 5.2 0 0 1-10.4 0zm-10.4-5.2v-25.999h10.4v25.999zm20.799 10.4a5.2 5.2 0 0 1-5.2-5.2h10.4a5.2 5.2 0 0 1-5.2 5.2zm5.2-10.4h-10.4v-25.999h10.4zm77.998 109.197h-72.798v-5.2h72.798zm0-10.4h-72.798v-84.643c4.276 2.558 9.774 1.65 13-2.147 1.95 2.28 4.8 3.593 7.8 3.593s5.85-1.313 7.8-3.593c1.95 2.28 4.8 3.593 7.8 3.593s5.85-1.313 7.8-3.593c1.95 2.28 4.8 3.593 7.8 3.593s5.85-1.313 7.8-3.593c3.226 3.797 8.724 4.705 13 2.147zm-62.398-93.597a5.2 5.2 0 0 1-10.4 0zm-10.4-5.2v-25.999h10.4v25.999zm25.999 5.2a5.2 5.2 0 0 1-10.4 0zm-10.4-5.2v-25.999h10.4v25.999zm25.999 5.2a5.2 5.2 0 0 1-10.4 0zm-10.4-5.2v-25.999h10.4v25.999zm25.999 5.2a5.2 5.2 0 0 1-10.4 0zm-10.4-5.2v-25.999h10.4v25.999zm20.799 10.4a5.2 5.2 0 0 1-5.2-5.2h10.4a5.2 5.2 0 0 1-5.2 5.2zm5.2-10.4h-10.4v-25.999h10.4zm36.399 109.197H276.59v-25.999h31.199zm0-31.199H276.59v-5.2h31.199zm-20.799-72.798a5.2 5.2 0 0 1-10.4 0zm-10.4-5.2v-25.999h10.4v25.999zm5.2 15.6c2.999-.01 5.843-1.32 7.8-3.593 3.226 3.797 8.724 4.705 13 2.147v53.444h-25.999v-53.444a10.29 10.29 0 0 0 5.2 1.446zm20.799-10.4a5.2 5.2 0 0 1-10.4 0zm-10.4-5.2v-25.999h10.4v25.999zm15.6-31.199H162.196v-5.2h145.596zm-72.796 80.226c-11.7 0-20.799 12.379-20.799 23.027 0 13.744 15.111 13.744 20.799 13.744s20.799 0 20.799-13.744c0-10.649-9.087-23.027-20.799-23.027zm0 31.571c-12.945 0-15.6-3.414-15.6-8.544 0-8.026 7.199-17.827 15.6-17.827s15.6 9.802 15.6 17.827c0 5.13-2.655 8.544-15.6 8.544zm0 0"/><path d="M224.594 329.542a7.8 7.8 0 0 0-15.6 0 7.8 7.8 0 0 0 15.6 0zm-10.4 0a2.6 2.6 0 0 1 5.2 0 2.6 2.6 0 0 1-5.2 0zm38.999-7.799a7.8 7.8 0 0 0 0 15.6 7.8 7.8 0 0 0 0-15.6zm0 10.4a2.6 2.6 0 0 1 0-5.2 2.6 2.6 0 0 1 0 5.2zm0 0"/><path d="M234.993 329.542a7.8 7.8 0 0 0 0-15.6 7.8 7.8 0 0 0 0 15.6zm0-10.4a2.6 2.6 0 0 1 0 5.2 2.6 2.6 0 0 1 0-5.2zm28.599 23.4a2.6 2.6 0 0 0-2.6 2.6v5.2a2.6 2.6 0 0 0 5.2 0v-5.2a2.6 2.6 0 0 0-2.6-2.6zm0 0"/><use xlink:href="#B"/><use xlink:href="#B" y="13"/><use xlink:href="#C"/><use xlink:href="#C" y="12.999"/></g></svg>