<svg xmlns="http://www.w3.org/2000/svg" xmlns:xlink="http://www.w3.org/1999/xlink" height="682.667" viewBox="0 -32 512 512" width="682.667" xmlns:v="https://vecta.io/nano"><style><![CDATA[.B{shape-rendering:optimizeSpeed}]]></style><defs><linearGradient id="A" x1="183.931" y1="-101.612" x2="239.14" y2="724.22" gradientUnits="userSpaceOnUse"><stop offset="0" stop-color="purple"/><stop offset="1" stop-color="purple" stop-opacity="0"/></linearGradient><path id="B" d="M147.645 236.747h5.156v5.156h-5.156z"/></defs><g fill="#fff" class="B"><use xlink:href="#B"/><use xlink:href="#B" x="5.157"/><use xlink:href="#B" x="10.313"/><use xlink:href="#B" x="15.47"/><use xlink:href="#B" x="20.626"/><use xlink:href="#B" x="25.782"/><use xlink:href="#B" x="30.939"/><use xlink:href="#B" x="41.251"/><use xlink:href="#B" x="51.564"/><use xlink:href="#B" x="61.877"/><use xlink:href="#B" x="67.033"/><use xlink:href="#B" x="82.502"/><use xlink:href="#B" x="87.659"/><use xlink:href="#B" x="92.815"/><use xlink:href="#B" x="97.971"/><use xlink:href="#B" x="103.128"/><use xlink:href="#B" x="113.44"/><use xlink:href="#B" x="118.597"/><use xlink:href="#B" x="123.753"/><use xlink:href="#B" x="128.909"/><use xlink:href="#B" x="134.066"/><use xlink:href="#B" x="139.222"/><use xlink:href="#B" x="144.378"/><use xlink:href="#B" y="5.156"/><use xlink:href="#B" x="30.939" y="5.156"/><use xlink:href="#B" x="46.408" y="5.156"/><use xlink:href="#B" x="51.564" y="5.156"/><use xlink:href="#B" x="56.72" y="5.156"/><use xlink:href="#B" x="61.877" y="5.156"/><use xlink:href="#B" x="72.189" y="5.156"/><use xlink:href="#B" x="82.502" y="5.156"/><use xlink:href="#B" x="92.815" y="5.156"/><use xlink:href="#B" x="103.128" y="5.156"/><use xlink:href="#B" x="113.44" y="5.156"/><use xlink:href="#B" x="144.378" y="5.156"/><use xlink:href="#B" y="10.313"/><use xlink:href="#B" x="10.313" y="10.313"/><use xlink:href="#B" x="15.47" y="10.313"/><use xlink:href="#B" x="20.626" y="10.313"/><use xlink:href="#B" x="30.939" y="10.313"/><use xlink:href="#B" x="41.251" y="10.313"/><use xlink:href="#B" x="46.408" y="10.313"/><use xlink:href="#B" x="51.564" y="10.313"/><use xlink:href="#B" x="67.033" y="10.313"/><use xlink:href="#B" x="72.189" y="10.313"/><use xlink:href="#B" x="77.346" y="10.313"/><use xlink:href="#B" x="82.502" y="10.313"/><use xlink:href="#B" x="92.815" y="10.313"/><use xlink:href="#B" x="97.971" y="10.313"/><use xlink:href="#B" x="103.128" y="10.313"/><use xlink:href="#B" x="113.44" y="10.313"/><use xlink:href="#B" x="123.753" y="10.313"/><use xlink:href="#B" x="128.909" y="10.313"/><use xlink:href="#B" x="134.066" y="10.313"/><use xlink:href="#B" x="144.378" y="10.313"/><use xlink:href="#B" y="15.469"/><use xlink:href="#B" x="10.313" y="15.469"/><use xlink:href="#B" x="15.47" y="15.469"/><use xlink:href="#B" x="20.626" y="15.469"/><use xlink:href="#B" x="30.939" y="15.469"/><use xlink:href="#B" x="41.251" y="15.469"/><use xlink:href="#B" x="46.408" y="15.469"/><use xlink:href="#B" x="51.564" y="15.469"/><use xlink:href="#B" x="61.877" y="15.469"/><use xlink:href="#B" x="67.033" y="15.469"/><use xlink:href="#B" x="72.189" y="15.469"/><use xlink:href="#B" x="87.659" y="15.469"/><use xlink:href="#B" x="97.971" y="15.469"/><use xlink:href="#B" x="113.44" y="15.469"/><use xlink:href="#B" x="123.753" y="15.469"/><use xlink:href="#B" x="128.909" y="15.469"/><use xlink:href="#B" x="134.066" y="15.469"/><use xlink:href="#B" x="144.378" y="15.469"/><use xlink:href="#B" y="20.625"/><use xlink:href="#B" x="10.313" y="20.625"/><use xlink:href="#B" x="15.47" y="20.625"/><use xlink:href="#B" x="20.626" y="20.625"/><use xlink:href="#B" x="30.939" y="20.625"/><use xlink:href="#B" x="41.251" y="20.625"/><use xlink:href="#B" x="56.72" y="20.625"/><use xlink:href="#B" x="61.877" y="20.625"/><use xlink:href="#B" x="77.346" y="20.625"/><use xlink:href="#B" x="82.502" y="20.625"/><use xlink:href="#B" x="87.659" y="20.625"/><use xlink:href="#B" x="92.815" y="20.625"/><use xlink:href="#B" x="97.971" y="20.625"/><use xlink:href="#B" x="113.44" y="20.625"/><use xlink:href="#B" x="123.753" y="20.625"/><use xlink:href="#B" x="128.909" y="20.625"/><use xlink:href="#B" x="134.066" y="20.625"/><use xlink:href="#B" x="144.378" y="20.625"/><use xlink:href="#B" y="25.782"/><use xlink:href="#B" x="30.939" y="25.782"/><use xlink:href="#B" x="51.564" y="25.782"/><use xlink:href="#B" x="56.72" y="25.782"/><use xlink:href="#B" x="72.189" y="25.782"/><use xlink:href="#B" x="82.502" y="25.782"/><use xlink:href="#B" x="87.659" y="25.782"/><use xlink:href="#B" x="97.971" y="25.782"/><use xlink:href="#B" x="113.44" y="25.782"/><use xlink:href="#B" x="144.378" y="25.782"/><use xlink:href="#B" y="30.938"/><use xlink:href="#B" x="5.157" y="30.938"/><use xlink:href="#B" x="10.313" y="30.938"/><use xlink:href="#B" x="15.47" y="30.938"/><use xlink:href="#B" x="20.626" y="30.938"/><use xlink:href="#B" x="25.782" y="30.938"/><use xlink:href="#B" x="30.939" y="30.938"/><use xlink:href="#B" x="41.251" y="30.938"/><use xlink:href="#B" x="51.564" y="30.938"/><use xlink:href="#B" x="61.877" y="30.938"/><use xlink:href="#B" x="72.189" y="30.938"/><use xlink:href="#B" x="82.502" y="30.938"/><use xlink:href="#B" x="92.815" y="30.938"/><use xlink:href="#B" x="103.128" y="30.938"/><use xlink:href="#B" x="113.44" y="30.938"/><use xlink:href="#B" x="118.597" y="30.938"/><use xlink:href="#B" x="123.753" y="30.938"/><use xlink:href="#B" x="128.909" y="30.938"/><use xlink:href="#B" x="134.066" y="30.938"/><use xlink:href="#B" x="139.222" y="30.938"/><use xlink:href="#B" x="144.378" y="30.938"/><use xlink:href="#B" x="51.564" y="36.094"/><use xlink:href="#B" x="61.877" y="36.094"/><use xlink:href="#B" x="87.659" y="36.094"/><use xlink:href="#B" x="92.815" y="36.094"/><use xlink:href="#B" y="41.251"/><use xlink:href="#B" x="5.157" y="41.251"/><use xlink:href="#B" x="10.313" y="41.251"/><use xlink:href="#B" x="15.47" y="41.251"/><use xlink:href="#B" x="30.939" y="41.251"/><use xlink:href="#B" x="41.251" y="41.251"/><use xlink:href="#B" x="51.564" y="41.251"/><use xlink:href="#B" x="56.72" y="41.251"/><use xlink:href="#B" x="72.189" y="41.251"/><use xlink:href="#B" x="82.502" y="41.251"/><use xlink:href="#B" x="87.659" y="41.251"/><use xlink:href="#B" x="92.815" y="41.251"/><use xlink:href="#B" x="108.284" y="41.251"/><use xlink:href="#B" x="123.753" y="41.251"/><use xlink:href="#B" x="128.909" y="41.251"/><use xlink:href="#B" x="134.066" y="41.251"/><use xlink:href="#B" x="144.378" y="41.251"/><use xlink:href="#B" x="15.47" y="46.407"/><use xlink:href="#B" x="25.782" y="46.407"/><use xlink:href="#B" x="36.095" y="46.407"/><use xlink:href="#B" x="41.251" y="46.407"/><use xlink:href="#B" x="51.564" y="46.407"/><use xlink:href="#B" x="61.877" y="46.407"/><use xlink:href="#B" x="67.033" y="46.407"/><use xlink:href="#B" x="87.659" y="46.407"/><use xlink:href="#B" x="92.815" y="46.407"/><use xlink:href="#B" x="97.971" y="46.407"/><use xlink:href="#B" x="103.128" y="46.407"/><use xlink:href="#B" x="108.284" y="46.407"/><use xlink:href="#B" x="113.44" y="46.407"/><use xlink:href="#B" x="118.597" y="46.407"/><use xlink:href="#B" x="123.753" y="46.407"/><use xlink:href="#B" x="128.909" y="46.407"/><use xlink:href="#B" x="134.066" y="46.407"/><use xlink:href="#B" x="139.222" y="46.407"/><use xlink:href="#B" x="144.378" y="46.407"/><use xlink:href="#B" x="5.157" y="51.564"/><use xlink:href="#B" x="10.313" y="51.564"/><use xlink:href="#B" x="15.47" y="51.564"/><use xlink:href="#B" x="30.939" y="51.564"/><use xlink:href="#B" x="41.251" y="51.564"/><use xlink:href="#B" x="46.408" y="51.564"/><use xlink:href="#B" x="51.564" y="51.564"/><use xlink:href="#B" x="56.72" y="51.564"/><use xlink:href="#B" x="61.877" y="51.564"/><use xlink:href="#B" x="72.189" y="51.564"/><use xlink:href="#B" x="82.502" y="51.564"/><use xlink:href="#B" x="92.815" y="51.564"/><use xlink:href="#B" x="108.284" y="51.564"/><use xlink:href="#B" x="113.44" y="51.564"/><use xlink:href="#B" x="139.222" y="51.564"/><use xlink:href="#B" x="5.157" y="56.72"/><use xlink:href="#B" x="25.782" y="56.72"/><use xlink:href="#B" x="36.095" y="56.72"/><use xlink:href="#B" x="46.408" y="56.72"/><use xlink:href="#B" x="51.564" y="56.72"/><use xlink:href="#B" x="56.72" y="56.72"/><use xlink:href="#B" x="67.033" y="56.72"/><use xlink:href="#B" x="72.189" y="56.72"/><use xlink:href="#B" x="92.815" y="56.72"/><use xlink:href="#B" x="97.971" y="56.72"/><use xlink:href="#B" x="113.44" y="56.72"/><use xlink:href="#B" x="139.222" y="56.72"/><use xlink:href="#B" x="144.378" y="56.72"/><use xlink:href="#B" y="61.876"/><use xlink:href="#B" x="20.626" y="61.876"/><use xlink:href="#B" x="25.782" y="61.876"/><use xlink:href="#B" x="30.939" y="61.876"/><use xlink:href="#B" x="36.095" y="61.876"/><use xlink:href="#B" x="46.408" y="61.876"/><use xlink:href="#B" x="51.564" y="61.876"/><use xlink:href="#B" x="67.033" y="61.876"/><use xlink:href="#B" x="72.189" y="61.876"/><use xlink:href="#B" x="77.346" y="61.876"/><use xlink:href="#B" x="87.659" y="61.876"/><use xlink:href="#B" x="92.815" y="61.876"/><use xlink:href="#B" x="97.971" y="61.876"/><use xlink:href="#B" x="108.284" y="61.876"/><use xlink:href="#B" x="128.909" y="61.876"/><use xlink:href="#B" x="134.066" y="61.876"/><use xlink:href="#B" x="5.157" y="67.033"/><use xlink:href="#B" x="15.47" y="67.033"/><use xlink:href="#B" x="61.877" y="67.033"/><use xlink:href="#B" x="77.346" y="67.033"/><use xlink:href="#B" x="82.502" y="67.033"/><use xlink:href="#B" x="87.659" y="67.033"/><use xlink:href="#B" x="97.971" y="67.033"/><use xlink:href="#B" x="113.44" y="67.033"/><use xlink:href="#B" x="128.909" y="67.033"/><use xlink:href="#B" x="134.066" y="67.033"/><use xlink:href="#B" x="144.378" y="67.033"/><use xlink:href="#B" x="5.157" y="72.189"/><use xlink:href="#B" x="10.313" y="72.189"/><use xlink:href="#B" x="15.47" y="72.189"/><use xlink:href="#B" x="25.782" y="72.189"/><use xlink:href="#B" x="30.939" y="72.189"/><use xlink:href="#B" x="46.408" y="72.189"/><use xlink:href="#B" x="51.564" y="72.189"/><use xlink:href="#B" x="61.877" y="72.189"/><use xlink:href="#B" x="67.033" y="72.189"/><use xlink:href="#B" x="82.502" y="72.189"/><use xlink:href="#B" x="97.971" y="72.189"/><use xlink:href="#B" x="113.44" y="72.189"/><use xlink:href="#B" x="128.909" y="72.189"/><use xlink:href="#B" x="134.066" y="72.189"/><use xlink:href="#B" x="139.222" y="72.189"/><use xlink:href="#B" x="144.378" y="72.189"/><use xlink:href="#B" x="5.157" y="77.345"/><use xlink:href="#B" x="10.313" y="77.345"/><use xlink:href="#B" x="15.47" y="77.345"/><use xlink:href="#B" x="20.626" y="77.345"/><use xlink:href="#B" x="25.782" y="77.345"/><use xlink:href="#B" x="46.408" y="77.345"/><use xlink:href="#B" x="56.72" y="77.345"/><use xlink:href="#B" x="77.346" y="77.345"/><use xlink:href="#B" x="82.502" y="77.345"/><use xlink:href="#B" x="92.815" y="77.345"/><use xlink:href="#B" x="97.971" y="77.345"/><use xlink:href="#B" x="103.128" y="77.345"/><use xlink:href="#B" x="108.284" y="77.345"/><use xlink:href="#B" x="123.753" y="77.345"/><use xlink:href="#B" x="128.909" y="77.345"/><use xlink:href="#B" y="82.502"/><use xlink:href="#B" x="10.313" y="82.502"/><use xlink:href="#B" x="15.47" y="82.502"/><use xlink:href="#B" x="20.626" y="82.502"/><use xlink:href="#B" x="25.782" y="82.502"/><use xlink:href="#B" x="30.939" y="82.502"/><use xlink:href="#B" x="41.251" y="82.502"/><use xlink:href="#B" x="67.033" y="82.502"/><use xlink:href="#B" x="92.815" y="82.502"/><use xlink:href="#B" x="108.284" y="82.502"/><use xlink:href="#B" x="118.597" y="82.502"/><use xlink:href="#B" x="123.753" y="82.502"/><use xlink:href="#B" x="144.378" y="82.502"/><use xlink:href="#B" x="36.095" y="87.658"/><use xlink:href="#B" x="41.251" y="87.658"/><use xlink:href="#B" x="56.72" y="87.658"/><use xlink:href="#B" x="61.877" y="87.658"/><use xlink:href="#B" x="67.033" y="87.658"/><use xlink:href="#B" x="77.346" y="87.658"/><use xlink:href="#B" x="87.659" y="87.658"/><use xlink:href="#B" x="103.128" y="87.658"/><use xlink:href="#B" y="92.814"/><use xlink:href="#B" x="15.47" y="92.814"/><use xlink:href="#B" x="20.626" y="92.814"/><use xlink:href="#B" x="30.939" y="92.814"/><use xlink:href="#B" x="41.251" y="92.814"/><use xlink:href="#B" x="46.408" y="92.814"/><use xlink:href="#B" x="51.564" y="92.814"/><use xlink:href="#B" x="61.877" y="92.814"/><use xlink:href="#B" x="72.189" y="92.814"/><use xlink:href="#B" x="77.346" y="92.814"/><use xlink:href="#B" x="103.128" y="92.814"/><use xlink:href="#B" x="113.44" y="92.814"/><use xlink:href="#B" x="118.597" y="92.814"/><use xlink:href="#B" x="128.909" y="92.814"/><use xlink:href="#B" x="10.313" y="97.971"/><use xlink:href="#B" x="15.47" y="97.971"/><use xlink:href="#B" x="25.782" y="97.971"/><use xlink:href="#B" x="36.095" y="97.971"/><use xlink:href="#B" x="51.564" y="97.971"/><use xlink:href="#B" x="56.72" y="97.971"/><use xlink:href="#B" x="61.877" y="97.971"/><use xlink:href="#B" x="87.659" y="97.971"/><use xlink:href="#B" x="92.815" y="97.971"/><use xlink:href="#B" x="103.128" y="97.971"/><use xlink:href="#B" x="108.284" y="97.971"/><use xlink:href="#B" x="123.753" y="97.971"/><use xlink:href="#B" x="128.909" y="97.971"/><use xlink:href="#B" x="134.066" y="97.971"/><use xlink:href="#B" x="144.378" y="97.971"/><use xlink:href="#B" x="5.157" y="103.127"/><use xlink:href="#B" x="10.313" y="103.127"/><use xlink:href="#B" x="30.939" y="103.127"/><use xlink:href="#B" x="41.251" y="103.127"/><use xlink:href="#B" x="51.564" y="103.127"/><use xlink:href="#B" x="61.877" y="103.127"/><use xlink:href="#B" x="72.189" y="103.127"/><use xlink:href="#B" x="82.502" y="103.127"/><use xlink:href="#B" x="87.659" y="103.127"/><use xlink:href="#B" x="92.815" y="103.127"/><use xlink:href="#B" x="97.971" y="103.127"/><use xlink:href="#B" x="103.128" y="103.127"/><use xlink:href="#B" x="108.284" y="103.127"/><use xlink:href="#B" x="113.44" y="103.127"/><use xlink:href="#B" x="118.597" y="103.127"/><use xlink:href="#B" x="123.753" y="103.127"/><use xlink:href="#B" x="128.909" y="103.127"/><use xlink:href="#B" x="134.066" y="103.127"/><use xlink:href="#B" x="144.378" y="103.127"/><use xlink:href="#B" x="41.251" y="108.283"/><use xlink:href="#B" x="56.72" y="108.283"/><use xlink:href="#B" x="67.033" y="108.283"/><use xlink:href="#B" x="103.128" y="108.283"/><use xlink:href="#B" x="123.753" y="108.283"/><use xlink:href="#B" x="128.909" y="108.283"/><use xlink:href="#B" x="134.066" y="108.283"/><use xlink:href="#B" x="139.222" y="108.283"/><use xlink:href="#B" y="113.44"/><use xlink:href="#B" x="5.157" y="113.44"/><use xlink:href="#B" x="10.313" y="113.44"/><use xlink:href="#B" x="15.47" y="113.44"/><use xlink:href="#B" x="20.626" y="113.44"/><use xlink:href="#B" x="25.782" y="113.44"/><use xlink:href="#B" x="30.939" y="113.44"/><use xlink:href="#B" x="51.564" y="113.44"/><use xlink:href="#B" x="56.72" y="113.44"/><use xlink:href="#B" x="61.877" y="113.44"/><use xlink:href="#B" x="82.502" y="113.44"/><use xlink:href="#B" x="87.659" y="113.44"/><use xlink:href="#B" x="92.815" y="113.44"/><use xlink:href="#B" x="97.971" y="113.44"/><use xlink:href="#B" x="103.128" y="113.44"/><use xlink:href="#B" x="113.44" y="113.44"/><use xlink:href="#B" x="123.753" y="113.44"/><use xlink:href="#B" x="139.222" y="113.44"/><use xlink:href="#B" y="118.596"/><use xlink:href="#B" x="30.939" y="118.596"/><use xlink:href="#B" x="46.408" y="118.596"/><use xlink:href="#B" x="67.033" y="118.596"/><use xlink:href="#B" x="77.346" y="118.596"/><use xlink:href="#B" x="92.815" y="118.596"/><use xlink:href="#B" x="103.128" y="118.596"/><use xlink:href="#B" x="123.753" y="118.596"/><use xlink:href="#B" x="144.378" y="118.596"/><use xlink:href="#B" y="123.753"/><use xlink:href="#B" x="10.313" y="123.753"/><use xlink:href="#B" x="15.47" y="123.753"/><use xlink:href="#B" x="20.626" y="123.753"/><use xlink:href="#B" x="30.939" y="123.753"/><use xlink:href="#B" x="46.408" y="123.753"/><use xlink:href="#B" x="51.564" y="123.753"/><use xlink:href="#B" x="56.72" y="123.753"/><use xlink:href="#B" x="61.877" y="123.753"/><use xlink:href="#B" x="67.033" y="123.753"/><use xlink:href="#B" x="72.189" y="123.753"/><use xlink:href="#B" x="87.659" y="123.753"/><use xlink:href="#B" x="103.128" y="123.753"/><use xlink:href="#B" x="108.284" y="123.753"/><use xlink:href="#B" x="113.44" y="123.753"/><use xlink:href="#B" x="118.597" y="123.753"/><use xlink:href="#B" x="123.753" y="123.753"/><use xlink:href="#B" x="134.066" y="123.753"/><use xlink:href="#B" x="139.222" y="123.753"/><use xlink:href="#B" y="128.909"/><use xlink:href="#B" x="10.313" y="128.909"/><use xlink:href="#B" x="15.47" y="128.909"/><use xlink:href="#B" x="20.626" y="128.909"/><use xlink:href="#B" x="30.939" y="128.909"/><use xlink:href="#B" x="41.251" y="128.909"/><use xlink:href="#B" x="51.564" y="128.909"/><use xlink:href="#B" x="61.877" y="128.909"/><use xlink:href="#B" x="77.346" y="128.909"/><use xlink:href="#B" x="82.502" y="128.909"/><use xlink:href="#B" x="108.284" y="128.909"/><use xlink:href="#B" x="118.597" y="128.909"/><use xlink:href="#B" x="123.753" y="128.909"/><use xlink:href="#B" x="139.222" y="128.909"/><use xlink:href="#B" x="144.378" y="128.909"/><use xlink:href="#B" y="134.065"/><use xlink:href="#B" x="10.313" y="134.065"/><use xlink:href="#B" x="15.47" y="134.065"/><use xlink:href="#B" x="20.626" y="134.065"/><use xlink:href="#B" x="30.939" y="134.065"/><use xlink:href="#B" x="41.251" y="134.065"/><use xlink:href="#B" x="67.033" y="134.065"/><use xlink:href="#B" x="72.189" y="134.065"/><use xlink:href="#B" x="82.502" y="134.065"/><use xlink:href="#B" x="87.659" y="134.065"/><use xlink:href="#B" x="92.815" y="134.065"/><use xlink:href="#B" x="97.971" y="134.065"/><use xlink:href="#B" x="118.597" y="134.065"/><use xlink:href="#B" x="144.378" y="134.065"/><use xlink:href="#B" y="139.222"/><use xlink:href="#B" x="30.939" y="139.222"/><use xlink:href="#B" x="41.251" y="139.222"/><use xlink:href="#B" x="72.189" y="139.222"/><use xlink:href="#B" x="77.346" y="139.222"/><use xlink:href="#B" x="82.502" y="139.222"/><use xlink:href="#B" x="92.815" y="139.222"/><use xlink:href="#B" x="97.971" y="139.222"/><use xlink:href="#B" x="103.128" y="139.222"/><use xlink:href="#B" x="108.284" y="139.222"/><use xlink:href="#B" x="123.753" y="139.222"/><use xlink:href="#B" x="128.909" y="139.222"/><use xlink:href="#B" x="139.222" y="139.222"/><use xlink:href="#B" y="144.378"/><use xlink:href="#B" x="5.157" y="144.378"/><use xlink:href="#B" x="10.313" y="144.378"/><use xlink:href="#B" x="15.47" y="144.378"/><use xlink:href="#B" x="20.626" y="144.378"/><use xlink:href="#B" x="25.782" y="144.378"/><use xlink:href="#B" x="30.939" y="144.378"/><use xlink:href="#B" x="41.251" y="144.378"/><use xlink:href="#B" x="56.72" y="144.378"/><use xlink:href="#B" x="67.033" y="144.378"/><use xlink:href="#B" x="92.815" y="144.378"/><use xlink:href="#B" x="97.971" y="144.378"/><use xlink:href="#B" x="103.128" y="144.378"/><use xlink:href="#B" x="108.284" y="144.378"/><use xlink:href="#B" x="139.222" y="144.378"/></g><g transform="translate(.452 -11.834)"><path d="M342.383 239.352c-23.039-35.941-62.277-57.402-104.965-57.402s-81.926 21.461-104.961 57.402l-55.516 86.605c-9.211 14.367-13.461 30.969-12.293 47.996s7.648 32.891 18.738 45.875c11.098 12.973 25.762 21.84 42.406 25.645s33.707 2.18 49.34-4.691l1.047-.465c39.336-16.945 84.285-16.789 123.52.465 10.121 4.449 20.844 6.699 31.664 6.699 5.883 0 11.801-.668 17.664-2.004 16.645-3.801 31.309-12.668 42.41-25.645 11.094-12.973 17.578-28.836 18.75-45.871a78.38 78.38 0 0 0-12.289-48.008zm0 0" fill="url(#A)"/><path d="M91.895 239.238c16.516-6.344 29.062-19.652 35.328-37.477 5.965-16.961 5.477-36.109-1.379-53.922-6.859-17.801-19.336-32.332-35.133-40.922-16.594-9.02-34.824-10.488-51.312-4.133-33.172 12.754-48.395 53.746-33.93 91.398 11.555 29.969 38.504 48.887 65.75 48.887 6.957 0 13.934-1.234 20.676-3.832zm0 0" fill="url(#A)"/><path d="M199.613 171.387c41.469 0 75.207-38.437 75.207-85.684C274.82 38.445 241.082 0 199.613 0s-75.199 38.445-75.199 85.703c0 47.246 33.734 85.684 75.199 85.684zm0 0" fill="url(#A)"/><path d="M329.496 192.438h.004a61.3 61.3 0 0 0 19.367 3.129c30.242 0 59.715-22.012 70.961-55.84 6.477-19.473 6.051-40.062-1.199-57.973-7.586-18.75-21.645-32.359-39.59-38.324s-37.359-3.477-54.66 7c-16.527 10.008-29.191 26.246-35.66 45.719-13.652 41.078 4.641 84.273 40.777 96.289zm0 0" fill="url(#A)"/><path d="M487.875 182.438l-.012-.012c-28.598-21.125-71.367-11.969-95.348 20.422-23.957 32.406-20.211 75.973 8.344 97.113 10.414 7.715 22.719 11.402 35.313 11.402 21.949 0 44.785-11.203 60.051-31.805 23.953-32.406 20.211-75.973-8.348-97.121zm0 0" fill="url(#A)"/></g><g fill="#fff"><path d="M186.063 257.136v36.811a2.66 2.66 0 0 0 2.662 2.662h36.812a2.66 2.66 0 0 0 2.662-2.662v-6.98a2.66 2.66 0 1 0-5.323 0v4.319h-31.489v-31.489h31.489v6.408a2.66 2.66 0 0 0 2.661 2.663c1.47 0 2.662-1.192 2.662-2.663v-9.069a2.66 2.66 0 0 0-2.662-2.662h-36.812a2.66 2.66 0 0 0-2.662 2.662zm15.547 10.222a2.66 2.66 0 0 0-2.661 2.661v11.044a2.66 2.66 0 0 0 2.661 2.662h11.044c1.47 0 2.662-1.192 2.662-2.662V270.02a2.66 2.66 0 0 0-2.662-2.661zm8.383 11.044h-5.721v-5.721h5.721zm15.545 37.216h-36.812a2.66 2.66 0 0 0-2.662 2.661v36.813a2.66 2.66 0 0 0 2.662 2.661h36.812a2.66 2.66 0 0 0 2.662-2.661v-36.813a2.66 2.66 0 0 0-2.662-2.661zm-2.661 36.812h-31.489v-31.489h31.489zm27.177-55.821h36.813a2.66 2.66 0 0 0 2.661-2.662v-36.811a2.66 2.66 0 0 0-2.661-2.662h-36.813a2.66 2.66 0 0 0-2.662 2.662v36.811a2.66 2.66 0 0 0 2.662 2.662zm2.661-36.812h31.489v31.489h-31.489zm0 0"/><path d="M289.528 355.092v-36.813a2.66 2.66 0 0 0-2.661-2.661h-36.813a2.66 2.66 0 0 0-2.662 2.661v36.813a2.66 2.66 0 0 0 2.662 2.661h36.813a2.66 2.66 0 0 0 2.661-2.661zm-5.324-2.662h-31.489v-31.489h31.489zm2.663-43.494c1.469 0 2.661-1.192 2.661-2.662a2.66 2.66 0 0 0-2.661-2.661H240.2v-46.772c0-1.47-1.192-2.662-2.661-2.662s-2.663 1.192-2.663 2.662v46.772h-35.328a2.66 2.66 0 1 0 0 5.323h35.328v46.156a2.662 2.662 0 1 0 5.324 0v-46.156zm0 0"/><path d="M201.61 345.067h11.044c1.47 0 2.662-1.192 2.662-2.662v-11.044a2.66 2.66 0 0 0-2.662-2.661H201.61a2.66 2.66 0 0 0-2.661 2.661v11.044a2.66 2.66 0 0 0 2.661 2.662zm2.662-11.044h5.721v5.721h-5.721zm69.71-66.665h-11.044a2.66 2.66 0 0 0-2.662 2.661v11.044c0 1.47 1.192 2.662 2.662 2.662h11.044a2.66 2.66 0 0 0 2.662-2.662V270.02a2.66 2.66 0 0 0-2.662-2.661zm-2.662 11.044h-5.719v-5.721h5.719zm0 0"/><path d="M262.938 345.067h11.044a2.66 2.66 0 0 0 2.662-2.662v-11.044a2.66 2.66 0 0 0-2.662-2.661h-11.044a2.66 2.66 0 0 0-2.662 2.661v11.044c0 1.47 1.192 2.662 2.662 2.662zm2.663-11.044h5.719v5.721h-5.719zm-77.414-30.399l-.143.033c-1.431.338-2.317 1.771-1.98 3.202.289 1.225 1.382 2.052 2.588 2.052a2.63 2.63 0 0 0 .613-.073l.143-.033a2.66 2.66 0 0 0 1.98-3.201c-.336-1.43-1.77-2.316-3.2-1.98zm36.815-29.694l-.143.034a2.66 2.66 0 0 0 .606 5.254 2.63 2.63 0 0 0 .61-.072l.142-.033a2.66 2.66 0 0 0 1.983-3.199c-.336-1.431-1.769-2.32-3.199-1.984zm-52.67-13.715a2.66 2.66 0 0 0 2.662-2.661v-13.818h13.315a2.66 2.66 0 0 0 2.663-2.661c0-1.47-1.192-2.662-2.663-2.662h-15.977c-1.469 0-2.661 1.192-2.661 2.662v16.479a2.66 2.66 0 0 0 2.661 2.661zm0 0"/><path d="M302.749 238.414h-15.977c-1.471 0-2.663 1.192-2.663 2.662a2.66 2.66 0 0 0 2.663 2.661h13.315v13.818a2.661 2.661 0 1 0 5.323 0v-16.479c0-1.47-1.192-2.662-2.661-2.662zm-114.44 130.302h-13.315v-13.817a2.66 2.66 0 0 0-2.662-2.661c-1.469 0-2.661 1.192-2.661 2.661v16.479c0 1.47 1.192 2.662 2.661 2.662h15.977c1.471 0 2.663-1.192 2.663-2.662s-1.192-2.662-2.663-2.662zm114.44-16.478a2.66 2.66 0 0 0-2.662 2.661v13.817h-13.315c-1.471 0-2.663 1.191-2.663 2.662s1.192 2.662 2.663 2.662h15.977c1.469 0 2.661-1.192 2.661-2.662v-16.479c0-1.469-1.192-2.661-2.661-2.661zm0 0"/></g></svg>