<svg height="436pt" viewBox="-9 0 436 436.238" width="436pt" xmlns="http://www.w3.org/2000/svg"><path d="m392.851562 161.238281h-.710937c-13.84375 0-25.0625 12.316407-25.0625 27.417969v20.601562c0 3.863282-3.136719 7-7 7-3.867187 0-7-3.136718-7-7v-38.042968c0-15.097656-11.121094-27.390625-24.964844-27.390625-13.917969 0-25.035156 12.289062-25.035156 27.390625v40.324218c0 3.863282-3.136719 7-7 7-3.867187 0-7-3.136718-7-7v-51.390624c0-15.101563-11.585937-26.910157-25.429687-26.910157h-.757813c-13.5 0-24.8125 11.199219-24.8125 25.789063v57.871094c0 3.867187-3.136719 7-7 7-3.867187 0-7-3.132813-7-7v-56.222657c0-.179687-.023437-.359375-.023437-.539062 0-.453125.023437-.902344.023437-1.347657v-131.398437c0-15.101563-11.402344-27.390625-25.238281-27.390625-13.839844 0-25.238282 12.277344-25.246094 27.371094l-.152344 217.871094c-.003906 2.957031-1.863281 5.59375-4.644531 6.585937-2.78125.996094-5.890625.136719-7.765625-2.148437l-26.015625-31.667969c-6.933594-8.6875-17.167969-14.101563-28.253906-14.949219-10.855469-.722656-21.519531 3.101562-29.449219 10.550781-.085938.078125-.175781.144531-.265625.21875l-5.363281 4.417969 90.347656 173.515625c14.316406 27.503906 41.386719 44.472656 70.644531 44.472656h104.261719c44.609375 0 80.941406-38.980469 80.984375-87.039062.023437-25.164063.050781-43.824219.070313-59.074219.050781-41.03125.070312-56.398438-.035157-101.5625-.035156-15.058594-11.296875-27.324219-25.105469-27.324219zm0 0"/><path d="m267.078125 63.238281h106.097656l-20.300781 20.300781c-2.730469 2.734376-2.730469 7.164063 0 9.898438 2.734375 2.734375 7.167969 2.734375 9.902344 0l32.128906-32.125c2.730469-2.734375 2.730469-7.167969 0-9.902344l-32.128906-32.128906c-2.734375-2.734375-7.167969-2.734375-9.902344 0-2.730469 2.734375-2.730469 7.164062 0 9.898438l20.058594 20.058593h-105.855469c-3.867187 0-7 3.132813-7 7 0 3.867188 3.132813 7 7 7zm0 0"/><path d="m23.902344 63.238281h105.175781c3.863281 0 7-3.132812 7-7 0-3.867187-3.136719-7-7-7h-104.941406l20.058593-20.058593c2.734376-2.734376 2.734376-7.167969 0-9.902344-2.734374-2.730469-7.164062-2.730469-9.898437 0l-32.128906 32.128906c-2.734375 2.734375-2.734375 7.167969 0 9.902344l32.128906 32.128906c2.734375 2.734375 7.164063 2.734375 9.898437 0 2.734376-2.734375 2.734376-7.164062 0-9.898438zm0 0"/></svg>