<?xml version="1.0" encoding="UTF-8" standalone="no"?>
<svg
   xmlns:dc="http://purl.org/dc/elements/1.1/"
   xmlns:cc="http://creativecommons.org/ns#"
   xmlns:rdf="http://www.w3.org/1999/02/22-rdf-syntax-ns#"
   xmlns:svg="http://www.w3.org/2000/svg"
   xmlns="http://www.w3.org/2000/svg"
   xmlns:sodipodi="http://sodipodi.sourceforge.net/DTD/sodipodi-0.dtd"
   xmlns:inkscape="http://www.inkscape.org/namespaces/inkscape"
   viewBox="0 -14 222.79056 210.81967"
   version="1.1"
   id="svg14"
   sodipodi:docname="promotion-white.svg"
   inkscape:version="1.0.2 (e86c870879, 2021-01-15, custom)"
   width="222.79056"
   height="210.81967">
  <metadata
     id="metadata20">
    <rdf:RDF>
      <cc:Work
         rdf:about="">
        <dc:format>image/svg+xml</dc:format>
        <dc:type
           rdf:resource="http://purl.org/dc/dcmitype/StillImage" />
        <dc:title></dc:title>
      </cc:Work>
    </rdf:RDF>
  </metadata>
  <defs
     id="defs18" />
  <sodipodi:namedview
     pagecolor="#ffffff"
     bordercolor="#666666"
     borderopacity="1"
     objecttolerance="10"
     gridtolerance="10"
     guidetolerance="10"
     inkscape:pageopacity="0"
     inkscape:pageshadow="2"
     inkscape:window-width="1851"
     inkscape:window-height="1011"
     id="namedview16"
     showgrid="false"
     inkscape:zoom="0.71777344"
     inkscape:cx="-11.130561"
     inkscape:cy="347.01823"
     inkscape:window-x="69"
     inkscape:window-y="32"
     inkscape:window-maximized="1"
     inkscape:current-layer="svg14"
     fit-margin-top="0"
     fit-margin-left="0"
     fit-margin-right="0"
     fit-margin-bottom="0" />
  <path
     d="m 59.598591,120.12447 c 2.080505,-1.20003 2.792704,-3.86355 1.592674,-5.94405 -1.20173,-2.07881 -3.863553,-2.79271 -5.944058,-1.59268 -2.080506,1.20173 -2.794404,3.86525 -1.592675,5.94406 1.20003,2.0805 3.863553,2.7944 5.944059,1.59267 z m 0,0"
     id="path2"
     style="fill:#ffffff;stroke-width:0.435138" />
  <path
     d="m 41.766416,150.15752 21.913297,37.95733 c 4.72873,8.19963 15.365824,11.23541 23.777932,6.37239 8.323722,-4.81032 11.184417,-15.44571 6.368999,-23.77623 l -13.054152,-22.6136 11.305099,-6.52707 c 2.080506,-1.20343 2.794405,-3.86356 1.592675,-5.94406 l -5.658499,-9.80081 c 0.674804,-0.13088 5.111176,-1.00116 83.345993,-16.34829 9.67163,-0.52522 15.46611,-11.102826 10.58101,-19.559126 l -14.46156,-25.047652 9.2416,-13.997517 c 0.90767,-1.376805 0.96206,-3.146255 0.13768,-4.574053 l -8.70277,-15.073465 c -0.82438,-1.427798 -2.38986,-2.264079 -4.03013,-2.167193 L 147.38266,30.062732 131.32843,2.2546691 c -2.32527,-4.028429 -6.49138,-6.4675836 -11.14192,-6.5253756 -0.0561,-0.0017 -0.11048,-0.0017 -0.16658,-0.0017 -4.49416,0 -8.57358,2.2368836 -10.99064,6.0188476 L 52.18594,74.159587 15.231473,95.494964 C 0.69683161,103.88327 -4.3378552,122.52963 4.0827521,137.10337 11.775863,150.42948 27.994966,155.67154 41.766416,150.15752 Z m 44.525195,24.90657 c 2.403459,4.15762 0.980761,9.47786 -3.188749,11.88642 -4.183107,2.41876 -9.510153,0.93317 -11.886417,-3.18535 L 49.459526,146.0764 64.532992,137.37363 c 25.180234,43.61922 21.354076,36.99186 21.758619,37.69046 z m -9.870503,-34.50511 -4.351384,-7.53673 7.536733,-4.35139 4.351384,7.53674 z m 85.540382,-102.653559 6.01375,10.416125 -5.36274,8.12145 -10.36513,-17.954558 z M 116.30766,6.5176661 c 1.16773,-1.91053 3.02047,-2.107702 3.77177,-2.087305 0.74279,0.0085 2.59383,0.239666 3.71057,2.173992 l 50.61203,87.6650909 c 1.64877,2.85389 -0.35525,6.442076 -3.66128,6.523666 -0.59321,0.0136 -0.86688,0.12068 -2.38646,0.40454 L 114.81697,8.4672891 c 1.12354,-1.444795 1.26802,-1.584175 1.49069,-1.949623 z M 109.02589,15.844245 159.32687,102.9688 83.412218,117.85869 60.329487,77.878661 Z M 11.619485,132.75199 c -1.9105294,-3.30604 -2.9201862,-7.0591 -2.9201862,-10.85637 0,-7.7611 4.1712092,-14.98847 10.8835582,-18.86393 L 53.498154,83.450471 75.255073,121.13413 41.339776,140.71706 c -10.390628,5.99675 -23.721841,2.42385 -29.720291,-7.96507 z m 0,0"
     id="path4"
     style="fill:#ffffff;stroke-width:0.435138" />
  <path
     d="m 46.1178,122.88318 c -1.20173,-2.0805 -3.863553,-2.7944 -5.944059,-1.59267 l -7.536733,4.35138 c -2.077105,1.20003 -4.744028,0.48443 -5.944058,-1.59267 -1.20173,-2.08051 -3.863553,-2.79441 -5.944058,-1.59268 -2.080505,1.20173 -2.794404,3.86356 -1.592674,5.94406 3.581392,6.20412 11.570261,8.39171 17.832174,4.77803 l 7.536733,-4.35139 c 2.080506,-1.20173 2.794404,-3.86185 1.592675,-5.94406 z m 0,0"
     id="path6"
     style="fill:#ffffff;stroke-width:0.435138" />
  <path
     d="M 216.3232,5.0354761 192.07613,18.528165 c -2.0992,1.169434 -2.8556,3.819359 -1.68616,5.918562 1.16603,2.097503 3.81426,2.857295 5.91856,1.686161 L 220.5539,12.640199 c 2.1009,-1.169435 2.85559,-3.8193599 1.68616,-5.9185619 -1.16774,-2.100903 -3.81766,-2.855596 -5.91686,-1.686161 z m 0,0"
     id="path8"
     style="fill:#ffffff;stroke-width:0.435138" />
  <path
     d="m 213.78036,50.102894 -16.81232,-4.504362 c -2.32187,-0.622113 -4.70834,0.754693 -5.33045,3.076564 -0.62211,2.321871 0.7564,4.706633 3.07827,5.328745 l 16.81402,4.504362 c 2.33546,0.627212 4.71003,-0.77169 5.32874,-3.076564 0.62211,-2.321871 -0.75639,-4.708333 -3.07826,-5.328745 z m 0,0"
     id="path10"
     style="fill:#ffffff;stroke-width:0.435138" />
  <path
     d="m 171.53114,-10.773986 -4.50946,16.8140201 c -0.62211,2.32187 0.75469,4.7066329 3.07656,5.3304449 2.32017,0.620412 4.70664,-0.752994 5.33045,-3.0765649 l 4.50776,-16.8140189 c 0.62211,-2.3218712 -0.75469,-4.7083332 -3.07656,-5.3304452 -2.32018,-0.622112 -4.70664,0.754693 -5.32875,3.076564 z m 0,0"
     id="path12"
     style="fill:#ffffff;stroke-width:0.435138" />
</svg>
